<svg xmlns="http://www.w3.org/2000/svg" xmlns:xlink="http://www.w3.org/1999/xlink" viewBox="0,0,256,256" width="150px" height="150px"><g fill="#ffffff" fill-rule="nonzero" stroke="none" stroke-width="1" stroke-linecap="butt" stroke-linejoin="miter" stroke-miterlimit="10" stroke-dasharray="" stroke-dashoffset="0" font-family="none" font-weight="none" font-size="none" text-anchor="none" style="mix-blend-mode: normal"><g transform="scale(2.56,2.56)"><path d="M50.84766,15.90625c-0.3256,-0.01669 -0.65271,-0.00186 -0.97461,0.04297c-1.28759,0.17933 -2.50682,0.84554 -3.34766,1.95508c-1.68282,2.22018 -1.2335,5.41344 0.99414,7.08789l6.79492,5.10742h-30.5332c-2.78837,0 -5.07422,2.27392 -5.07422,5.05859c0,2.78467 2.28585,5.05859 5.07422,5.05859h13.99805l-26.66992,21.77148c-2.15991,1.76167 -2.47878,4.97028 -0.70898,7.12109c1.00005,1.21595 2.46066,1.85156 3.92578,1.85156c1.12976,0 2.27482,-0.37884 3.21484,-1.14648l15.44922,-12.60937c0.11352,14.17089 13.11524,25.52344 28.99414,25.52344c15.9486,0 29.01563,-11.44816 29.01563,-25.70508c0,-7.93157 -4.08282,-15.00231 -10.41211,-19.69922c-0.03897,-0.04468 -0.01368,-0.01057 -0.0332,-0.03125c-0.06625,-0.07017 -0.09235,-0.09179 -0.11133,-0.10742c-0.02457,-0.02024 -0.04934,-0.04013 -0.08008,-0.06445c-0.06147,-0.04865 -0.14388,-0.11286 -0.24805,-0.19336c-0.20833,-0.16099 -0.50527,-0.38691 -0.87891,-0.67187c-0.74726,-0.56992 -1.80125,-1.37087 -3.0625,-2.32617c-2.52249,-1.9106 -5.86768,-4.43862 -9.20703,-6.95898c-6.67871,-5.04072 -13.33594,-10.05469 -13.33594,-10.05469c-0.83572,-0.62923 -1.80641,-0.95971 -2.7832,-1.00977zM50.73633,17.89258c0.59044,0.03182 1.17938,0.23558 1.69141,0.62109c0,0 6.65619,5.01466 13.33398,10.05469c3.3389,2.52002 6.68243,5.04584 9.20313,6.95508c1.26035,0.95462 2.3148,1.75499 3.05859,2.32227c0.37189,0.28364 0.6673,0.51004 0.86914,0.66602c0.10092,0.07799 0.17845,0.13811 0.22852,0.17773c0.02082,0.01648 0.03428,0.02614 0.04297,0.0332c0.0018,0.0014 0.00671,0.00691 0.00781,0.00781c0.0238,0.02069 0.04857,0.04024 0.07422,0.05859c5.98498,4.3685 9.75391,10.91554 9.75391,18.23438c0,13.03108 -12.02023,23.70508 -27.01562,23.70508c-14.9954,0 -27.01562,-10.6729 -27.01562,-23.70508c0,-0.63119 0.03659,-1.26389 0.09375,-1.90039c0.03497,-0.40009 -0.17278,-0.78228 -0.52754,-0.97052c-0.35476,-0.18824 -0.78772,-0.14601 -1.09941,0.10724l-17.16016,14.00586c-0.57598,0.47035 -1.26097,0.69531 -1.94922,0.69531c-0.89288,0 -1.76891,-0.37899 -2.38086,-1.12305c-1.0822,-1.31519 -0.89241,-3.22245 0.42969,-4.30078l28.8457,-23.54492c0.32813,-0.26738 0.4524,-0.71237 0.31029,-1.11107c-0.14211,-0.3987 -0.51983,-0.66477 -0.9431,-0.66432h-16.80664c-1.71163,0 -3.07422,-1.35926 -3.07422,-3.05859c0,-1.69933 1.36259,-3.05859 3.07422,-3.05859h33.52734c0.43072,0.00015 0.81316,-0.27549 0.94923,-0.68415c0.13607,-0.40866 -0.00479,-0.85854 -0.34962,-1.11663l-9.1875,-6.90625c-1.36436,-1.02555 -1.63074,-2.92343 -0.60156,-4.28125c0.51416,-0.67847 1.25138,-1.08494 2.0293,-1.19336c0.19448,-0.0271 0.39108,-0.036 0.58789,-0.02539zM61.52539,38.82422c-8.88624,0 -16.13672,6.66487 -16.13672,14.92383c0,8.25895 7.25048,14.92383 16.13672,14.92383c8.88624,0 16.13867,-6.66488 16.13867,-14.92383c0,-6.77225 -4.87976,-12.47789 -11.53125,-14.30664c-0.17529,-0.0579 -0.36822,-0.01452 -0.50184,0.11285c-0.13363,0.12737 -0.18621,0.31799 -0.13679,0.49585c0.04943,0.17786 0.19283,0.31403 0.37301,0.35419c6.26051,1.72125 10.79687,7.052 10.79687,13.34375c0,7.67305 -6.75091,13.92383 -15.13867,13.92383c-8.38776,0 -15.13672,-6.25078 -15.13672,-13.92383c0,-7.67305 6.74896,-13.92383 15.13672,-13.92383c0.18032,0.00255 0.34804,-0.09219 0.43894,-0.24794c0.0909,-0.15575 0.0909,-0.34838 0,-0.50413c-0.0909,-0.15575 -0.25863,-0.25049 -0.43894,-0.24794zM61.52539,45.5c-4.92708,0 -8.97266,3.6735 -8.97266,8.24805c0,4.57455 4.04558,8.24805 8.97266,8.24805c4.92708,0 8.97461,-3.6735 8.97461,-8.24805c0,-1.61973 -0.51129,-3.13464 -1.38672,-4.40625c-0.09632,-0.15851 -0.27246,-0.25068 -0.45759,-0.23946c-0.18514,0.01122 -0.34885,0.124 -0.42532,0.29298c-0.07647,0.16898 -0.05312,0.3664 0.06065,0.51289c0.76857,1.11639 1.20898,2.42957 1.20898,3.83984c0,3.98345 -3.54169,7.24805 -7.97461,7.24805c-4.43292,0 -7.97266,-3.2646 -7.97266,-7.24805c0,-3.98345 3.53974,-7.24805 7.97266,-7.24805c1.40854,0 2.72763,0.33038 3.87305,0.91016c0.16004,0.08982 0.35642,0.08477 0.51162,-0.01317c0.1552,-0.09794 0.24428,-0.27303 0.23207,-0.45615c-0.01221,-0.18311 -0.12374,-0.34483 -0.29057,-0.4213c-1.28459,-0.65022 -2.76071,-1.01953 -4.32617,-1.01953zM37.49219,56.82617c-0.13261,0.00207 -0.25896,0.05673 -0.35127,0.15197c-0.0923,0.09523 -0.14299,0.22324 -0.14092,0.35584c0,3.74055 1.13134,7.26039 3.10938,10.3125c0.09175,0.16126 0.26526,0.25847 0.4507,0.2525c0.18544,-0.00596 0.35234,-0.11412 0.43354,-0.28094c0.0812,-0.16683 0.06336,-0.3649 -0.04635,-0.51453c-1.88197,-2.90389 -2.94727,-6.23008 -2.94727,-9.76953c0.00212,-0.13532 -0.0507,-0.26572 -0.1464,-0.36141c-0.0957,-0.0957 -0.22609,-0.14852 -0.36141,-0.1464zM43.13281,70.11914c-0.20411,-0.00314 -0.38964,0.11811 -0.46871,0.30632c-0.07906,0.18821 -0.03579,0.40558 0.10933,0.54915c1.07054,1.09712 2.26619,2.10018 3.56836,2.99414c0.14721,0.10266 0.33814,0.11856 0.5003,0.04166c0.16216,-0.0769 0.27067,-0.23481 0.28433,-0.41375c0.01366,-0.17895 -0.06962,-0.3515 -0.21823,-0.45212c-1.24983,-0.85804 -2.39451,-1.82026 -3.41797,-2.86914c-0.09308,-0.09832 -0.22204,-0.1547 -0.35742,-0.15625zM49.97461,75c-0.23078,0.00895 -0.42541,0.17479 -0.47088,0.40122c-0.04547,0.22643 0.07004,0.45455 0.27947,0.5519c3.61537,1.73073 7.78279,2.71484 12.2168,2.71484c0.18032,0.00255 0.34804,-0.09219 0.43894,-0.24794c0.0909,-0.15575 0.0909,-0.34838 0,-0.50413c-0.0909,-0.15575 -0.25863,-0.25049 -0.43894,-0.24794c-4.28599,0 -8.30457,-0.95192 -11.7832,-2.61719c-0.0752,-0.03695 -0.15848,-0.05441 -0.24219,-0.05078z"></path></g></g></svg>